<svg width="52" height="32" viewBox="0 0 52 32" fill="none" xmlns="http://www.w3.org/2000/svg">
<path fill-rule="evenodd" clip-rule="evenodd" d="M35.9999 2.6665C43.3638 2.6665 49.3332 8.63591 49.3332 15.9999C49.3332 23.3632 43.3638 29.3332 35.9999 29.3332C28.6359 29.3332 22.6665 23.3632 22.6665 15.9999C22.6665 8.63591 28.6359 2.6665 35.9999 2.6665Z" fill="#2775CA"/>
<path fill-rule="evenodd" clip-rule="evenodd" d="M33.5008 25.27C33.5008 25.5836 33.2551 25.7618 32.9518 25.6671C28.9204 24.3811 25.9976 20.6009 25.9976 16.1406C25.9976 11.6804 28.9204 7.90013 32.9518 6.61406C33.2551 6.51997 33.5008 6.69755 33.5008 7.01118V7.78543C33.5008 7.99422 33.3389 8.23997 33.14 8.308C29.9504 9.47922 27.6656 12.5433 27.6656 16.1353C27.6656 19.7273 29.9504 22.792 33.14 23.9626C33.3389 24.0359 33.5008 24.2762 33.5008 24.4858V25.27Z" fill="white"/>
<path fill-rule="evenodd" clip-rule="evenodd" d="M36.8312 22.389C36.8312 22.6193 36.643 22.8075 36.413 22.8075H35.5815C35.3515 22.8075 35.1633 22.6193 35.1633 22.389V21.0716C33.3436 20.826 32.455 19.8061 32.2144 18.4207C32.1724 18.1851 32.3606 17.9708 32.6012 17.9708H33.5529C33.7515 17.9708 33.9189 18.1122 33.9607 18.3105C34.1386 19.1367 34.6144 19.7695 36.073 19.7695C37.1501 19.7695 37.9138 19.1681 37.9138 18.2692C37.9138 17.3695 37.4639 17.0298 35.8848 16.7681C33.5529 16.4545 32.4497 15.7484 32.4497 13.9184C32.4497 12.5067 33.5165 11.4088 35.1686 11.1734V9.88186C35.1686 9.65171 35.357 9.46338 35.5868 9.46338H36.4183C36.6483 9.46338 36.8365 9.65171 36.8365 9.88186V11.21C38.1803 11.451 39.0326 12.2138 39.3098 13.4791C39.362 13.7201 39.1738 13.9444 38.9282 13.9444H38.0495C37.8614 13.9444 37.7045 13.8188 37.6471 13.636C37.4118 12.8311 36.8365 12.4861 35.8377 12.4861C34.7345 12.4861 34.1645 13.0193 34.1645 13.7669C34.1645 14.5564 34.4889 14.9535 36.1832 15.1998C38.473 15.5134 39.655 16.1669 39.655 18.1176C39.655 19.5972 38.5568 20.7946 36.8365 21.0716V22.389H36.8312Z" fill="white"/>
<path fill-rule="evenodd" clip-rule="evenodd" d="M39.0485 25.6671C38.7454 25.7618 38.4995 25.5836 38.4995 25.27V24.4963C38.4995 24.2662 38.6407 24.0519 38.8603 23.9732C42.0498 22.8019 44.3347 19.7378 44.3347 16.1459C44.3347 12.5539 42.0498 9.48979 38.8603 8.31858C38.6616 8.24525 38.4995 8.00494 38.4995 7.7954V7.02176C38.4995 6.70812 38.7454 6.52524 39.0485 6.62403C43.0798 7.91085 46.0027 11.691 46.0027 16.1512C45.9977 20.6007 43.0798 24.3757 39.0485 25.6671Z" fill="white"/>
<path d="M15.9602 2.6665L19.2538 6.03952L10.9602 14.3332L7.6665 11.0395L15.9602 2.6665Z" fill="#F0B90B" stroke="#F0B90B"/>
<path d="M20.9602 7.6665L24.2538 11.0395L10.9602 24.3332L7.6665 21.0395L20.9602 7.6665Z" fill="#F0B90B" stroke="#F0B90B"/>
<path d="M5.96016 12.6665L9.25381 16.0395L5.96016 19.3332L2.6665 16.0395L5.96016 12.6665Z" fill="#F0B90B" stroke="#F0B90B"/>
<path d="M25.9602 12.6665L29.2538 16.0395L15.9602 29.3332L12.6665 26.0395L25.9602 12.6665Z" fill="#F0B90B" stroke="#F0B90B"/>
</svg>
